<svg xmlns="http://www.w3.org/2000/svg" width="28" height="28" viewBox="0 0 256 256" version="1.1"><path d="M 170.395 19.051 C 165.982 20.374, 162.392 24.363, 161.196 29.274 C 160.630 31.598, 159.147 40.143, 157.901 48.263 L 155.636 63.025 153.068 60.615 C 148.884 56.688, 138.206 50.222, 132.146 47.944 C 124.062 44.905, 110.410 42.043, 104 42.043 C 97.141 42.043, 82.980 45.121, 74.992 48.347 C 64.946 52.405, 58.022 57.089, 49.556 65.556 C 37.823 77.288, 31.516 88.957, 28.176 105.107 C 26.642 112.526, 26.654 112.960, 28.441 114.934 C 30.238 116.921, 31.306 117, 56.221 117 C 81.840 117, 86 116.526, 86 113.606 C 86 111.152, 93.983 103.161, 97.640 101.954 C 106.640 98.983, 115.680 102.902, 121.063 112.108 L 123.631 116.500 149.850 116.767 C 166.790 116.939, 176.765 116.661, 178.035 115.981 C 183.778 112.908, 176.223 87.872, 165.086 73.069 C 162.839 70.083, 161 67.306, 161 66.899 C 161 65.332, 170.180 71.136, 173.261 74.651 C 175.042 76.683, 176.950 78.831, 177.500 79.423 C 178.050 80.015, 179.692 82.075, 181.148 84 C 186.467 91.030, 187.827 92, 192.365 92 C 195.526 92, 197.210 91.405, 198.781 89.733 C 201.350 86.998, 211.748 65.367, 219.082 47.500 C 222.016 40.350, 225.391 33.018, 226.581 31.206 C 228.634 28.080, 228.773 28.025, 229.319 30.111 C 229.997 32.705, 228.536 37, 210.983 84 C 203.691 103.525, 194.910 127.150, 191.469 136.500 C 183.461 158.266, 183.234 158.729, 179.847 160.228 C 178.281 160.921, 177 161.792, 177 162.162 C 177 162.533, 176.742 163.508, 176.427 164.329 C 175.520 166.693, 182.796 164.658, 185.725 161.730 C 189.233 158.221, 234.208 38.208, 234.377 31.904 C 234.518 26.635, 233.025 23.354, 229.188 20.500 C 226.675 18.630, 224.772 18.488, 200 18.310 C 185.425 18.206, 172.103 18.539, 170.395 19.051 M 86.235 51.014 C 79.354 52.817, 71.963 55.943, 78 54.497 C 79.375 54.167, 77.324 55.619, 73.442 57.723 C 65.063 62.264, 57.782 67.508, 53.092 72.381 C 51.217 74.329, 49.332 75.705, 48.904 75.441 C 47.961 74.858, 43.207 81.640, 39.748 88.500 C 36.775 94.399, 33 106.204, 33 109.605 L 33 112 57.500 112 C 79.065 112, 82 111.812, 82 110.435 C 82 109.574, 84.362 106.521, 87.250 103.651 C 94.768 96.177, 102.716 94.226, 112.124 97.543 C 116.829 99.202, 123.269 104.793, 125.608 109.250 L 127.051 112 151.389 112 L 175.727 112 174.789 106.841 C 169.907 79.979, 149.069 57.795, 122.286 50.945 C 112.167 48.357, 96.258 48.387, 86.235 51.014 M 82.500 53 C 81.181 53.567, 81.011 53.878, 82 53.914 C 82.825 53.945, 84.175 53.533, 85 53 C 86.828 51.819, 85.249 51.819, 82.500 53 M 69 57.663 C 62.526 61.466, 51.244 70.672, 49.865 73.276 C 49.217 74.499, 51.859 72.515, 55.737 68.868 C 59.615 65.220, 65.648 60.614, 69.144 58.633 C 72.640 56.652, 75.050 55.028, 74.500 55.025 C 73.950 55.022, 71.475 56.209, 69 57.663 M 136.980 122.782 C 129.856 122.945, 124.063 123.533, 123.295 124.170 C 122.563 124.778, 121.233 126.814, 120.341 128.694 C 116.202 137.417, 103.485 141.076, 94.334 136.179 C 91.860 134.855, 88.213 130.560, 85.797 126.126 L 84.093 123 57.201 123 C 31.507 123, 30.229 123.090, 28.485 125.016 C 26.823 126.853, 26.770 127.627, 27.889 133.701 C 31.260 151.996, 41.831 169.308, 56.464 180.496 C 95.548 210.380, 152.078 197.374, 172.897 153.708 C 176.235 146.707, 178.022 141, 180.525 129.353 C 180.781 128.163, 180.209 126.286, 179.243 125.145 C 177.660 123.275, 176.205 123.059, 163.416 122.793 C 155.670 122.632, 143.774 122.627, 136.980 122.782 M 33 130.290 C 33 134.848, 36.107 144.677, 40.178 153 C 43.556 159.906, 46.044 163.210, 53.450 170.622 C 61.243 178.421, 63.936 180.402, 72.032 184.287 C 93.700 194.686, 114.300 194.686, 135.968 184.287 C 144.094 180.387, 146.721 178.450, 154.500 170.622 C 166.095 158.952, 172.060 147.858, 174.861 132.750 L 175.742 128 151.466 128 L 127.190 128 124.658 132.320 C 120.554 139.323, 112.516 144, 104.584 144 C 96.167 144, 89.129 140.078, 83.685 132.356 L 80.615 128 56.807 128 L 33 128 33 130.290 M 170.655 172.829 C 169.745 173.835, 169 174.960, 169 175.329 C 169 175.698, 172.488 176.007, 176.750 176.015 C 185.468 176.031, 188.904 177.316, 190.799 181.268 C 191.952 183.671, 191.583 185.988, 187.540 201.739 C 183.818 216.238, 182.513 219.913, 180.435 221.750 C 177.937 223.957, 177.407 224, 152.509 224 C 138.357 224, 125.990 223.567, 124.553 223.020 C 120.319 221.410, 119.475 218.123, 121.365 210.600 C 123.518 202.026, 123.474 201.063, 120.960 201.721 C 118.630 202.330, 116.866 205.450, 115.043 212.187 C 113.919 216.344, 113.986 217.299, 115.638 220.623 C 116.662 222.684, 118.769 225.300, 120.321 226.435 C 122.971 228.375, 124.725 228.520, 149.321 228.823 C 177.188 229.167, 181.041 228.714, 184.862 224.647 C 187.822 221.496, 197.308 185.954, 196.378 181.500 C 194.798 173.933, 189.802 171.016, 178.405 171.006 C 173.765 171.001, 171.915 171.437, 170.655 172.829" stroke="none" fill="#cde3f3" fill-rule="evenodd"/><path d="M 232 22.774 C 232 23.228, 232.546 24.146, 233.214 24.814 C 233.882 25.482, 234.397 28.385, 234.358 31.264 C 234.301 35.555, 230.125 47.580, 211.211 97.910 C 195.317 140.207, 187.384 160.070, 185.725 161.730 C 182.796 164.658, 175.520 166.693, 176.427 164.329 C 176.742 163.508, 177 162.533, 177 162.162 C 177 161.792, 178.281 160.921, 179.847 160.228 C 183.234 158.729, 183.461 158.266, 191.469 136.500 C 194.910 127.150, 203.691 103.525, 210.983 84 C 228.536 37, 229.997 32.705, 229.319 30.111 C 228.773 28.025, 228.634 28.080, 226.581 31.206 C 225.391 33.018, 222.016 40.350, 219.082 47.500 C 211.748 65.367, 201.350 86.998, 198.781 89.733 C 197.210 91.405, 195.526 92, 192.365 92 C 187.827 92, 186.467 91.030, 181.148 84 C 179.692 82.075, 178.050 80.015, 177.500 79.423 C 176.950 78.831, 175.042 76.683, 173.261 74.651 C 170.180 71.136, 161 65.332, 161 66.899 C 161 67.306, 162.839 70.083, 165.086 73.069 C 170.836 80.712, 175.813 90.947, 178.070 99.774 C 180.614 109.722, 180.604 114.607, 178.035 115.981 C 176.765 116.661, 166.790 116.939, 149.850 116.767 L 123.631 116.500 121.063 112.108 C 115.680 102.902, 106.640 98.983, 97.640 101.954 C 93.983 103.161, 86 111.152, 86 113.606 C 86 116.520, 81.841 117, 56.566 117 C 29.584 117, 29.891 116.946, 31.607 121.418 C 32.139 122.804, 35.423 123, 58.153 123 L 84.093 123 85.797 126.126 C 88.436 130.970, 91.964 134.930, 95.069 136.536 C 100.021 139.097, 100.099 138.152, 95.440 132.027 L 90.898 126.053 95.026 120.465 C 100.170 113.502, 104.119 111.007, 110 111.007 C 115.544 111.007, 120.042 113.596, 123.748 118.922 L 126.500 122.876 152 122.907 C 176.800 122.938, 177.548 122.997, 179.243 125.072 C 180.202 126.245, 180.779 128.171, 180.525 129.353 C 175.726 151.685, 168.191 165.958, 155.117 177.482 C 120.170 208.287, 65.942 201.272, 39.754 162.559 C 38.244 160.327, 37.007 158.983, 37.004 159.574 C 36.994 162.070, 49.339 179.099, 54.873 184.222 C 67.507 195.919, 84.097 203.597, 101.946 206.008 C 111.600 207.312, 116.546 206.717, 117.956 204.082 C 119.221 201.718, 123 200.636, 123 202.638 C 123 203.436, 122.264 207.019, 121.365 210.600 C 119.475 218.123, 120.319 221.410, 124.553 223.020 C 125.990 223.567, 138.357 224, 152.509 224 C 177.407 224, 177.937 223.957, 180.435 221.750 C 182.513 219.913, 183.818 216.238, 187.540 201.739 C 191.583 185.988, 191.952 183.671, 190.799 181.268 C 188.904 177.316, 185.468 176.031, 176.750 176.015 C 172.488 176.007, 169 175.620, 169 175.155 C 169 172.707, 172.941 171, 178.579 171.006 C 189.794 171.016, 194.806 173.971, 196.378 181.500 C 197.308 185.954, 187.822 221.496, 184.862 224.647 C 181.044 228.711, 177.182 229.167, 149.453 228.823 C 126.763 228.542, 123.065 228.276, 120.760 226.764 L 118.114 225.029 119.159 228.025 C 120.651 232.306, 126.538 236.755, 132.443 238.065 C 135.665 238.779, 146.028 239.062, 161 238.843 L 184.500 238.500 189.154 235.764 C 192.379 233.868, 194.435 231.719, 195.849 228.764 C 198.980 222.224, 206.257 192.078, 205.639 188.209 C 204.840 183.213, 201.240 178.163, 196.899 175.949 C 194.755 174.855, 193 173.548, 193 173.046 C 193 172.544, 194.345 169.965, 195.989 167.316 C 199.045 162.390, 242.397 47.732, 243.573 41.463 C 244.505 36.495, 243.312 31.525, 240.341 27.994 C 237.702 24.857, 232 21.289, 232 22.774 M 86.235 51.014 C 79.354 52.817, 71.963 55.943, 78 54.497 C 79.375 54.167, 77.324 55.619, 73.442 57.723 C 65.063 62.264, 57.782 67.508, 53.092 72.381 C 51.217 74.329, 49.332 75.705, 48.904 75.441 C 47.961 74.858, 43.207 81.640, 39.748 88.500 C 36.775 94.399, 33 106.204, 33 109.605 L 33 112 57.500 112 C 79.065 112, 82 111.812, 82 110.435 C 82 109.574, 84.362 106.521, 87.250 103.651 C 94.768 96.177, 102.716 94.226, 112.124 97.543 C 116.829 99.202, 123.269 104.793, 125.608 109.250 L 127.051 112 151.389 112 L 175.727 112 174.789 106.841 C 169.907 79.979, 149.069 57.795, 122.286 50.945 C 112.167 48.357, 96.258 48.387, 86.235 51.014 M 82.500 53 C 81.181 53.567, 81.011 53.878, 82 53.914 C 82.825 53.945, 84.175 53.533, 85 53 C 86.828 51.819, 85.249 51.819, 82.500 53 M 146.518 55.640 C 148.708 57.091, 151.738 59.425, 153.250 60.827 C 155.396 62.815, 156 63.020, 156 61.759 C 156 60.861, 153.391 58.560, 150.119 56.572 C 143.305 52.433, 140.638 51.742, 146.518 55.640 M 69 57.663 C 62.526 61.466, 51.244 70.672, 49.865 73.276 C 49.217 74.499, 51.859 72.515, 55.737 68.868 C 59.615 65.220, 65.648 60.614, 69.144 58.633 C 72.640 56.652, 75.050 55.028, 74.500 55.025 C 73.950 55.022, 71.475 56.209, 69 57.663 M 33 130.290 C 33 134.848, 36.107 144.677, 40.178 153 C 43.556 159.906, 46.044 163.210, 53.450 170.622 C 61.243 178.421, 63.936 180.402, 72.032 184.287 C 93.700 194.686, 114.300 194.686, 135.968 184.287 C 144.094 180.387, 146.721 178.450, 154.500 170.622 C 166.095 158.952, 172.060 147.858, 174.861 132.750 L 175.742 128 151.466 128 L 127.190 128 124.658 132.320 C 120.554 139.323, 112.516 144, 104.584 144 C 96.167 144, 89.129 140.078, 83.685 132.356 L 80.615 128 56.807 128 L 33 128 33 130.290" stroke="none" fill="#2b608e" fill-rule="evenodd"/></svg>